<?xml version="1.0" encoding="utf-8"?>
<!-- Generator: Adobe Illustrator 26.0.3, SVG Export Plug-In . SVG Version: 6.00 Build 0)  -->
<svg version="1.0" id="Layer_1" xmlns="http://www.w3.org/2000/svg" xmlns:xlink="http://www.w3.org/1999/xlink" x="0px" y="0px"
	 viewBox="0 0 1198.2 888.9" style="enable-background:new 0 0 1198.2 888.9;" xml:space="preserve">
<style type="text/css">
	.st0{fill:url(#SVGID_1_);}
	.st1{fill:#FFFFFF;}
</style>
<linearGradient id="SVGID_1_" gradientUnits="userSpaceOnUse" x1="624.1261" y1="479.5144" x2="624.1261" y2="-133.4956" gradientTransform="matrix(1 0 0 1 -25 277)">
	<stop  offset="0" style="stop-color:#FA233B"/>
	<stop  offset="1" style="stop-color:#FB5C74"/>
</linearGradient>
<path class="st0" d="M913.6,326.7c0-7.5,0-15,0-22.5c0-6.3-0.1-12.6-0.3-19c-0.4-13.8-1.2-27.7-3.6-41.3
	c-2.3-13.7-6.7-26.9-12.9-39.3c-12.7-24.9-32.9-45.1-57.8-57.7c-12.4-6.3-25.6-10.6-39.3-13c-13.6-2.4-27.5-3.2-41.3-3.6
	c-6.3-0.2-12.7-0.2-19-0.3c-7.5,0-15,0-22.5,0H481.4c-7.5,0-15,0-22.5,0c-6.3,0-12.6,0.1-19,0.3c-13.7,0.4-27.7,1.2-41.3,3.6
	c-13.7,2.4-26.9,6.7-39.3,13c-24.9,12.7-45.1,32.9-57.8,57.7c-6.2,12.4-10.6,25.6-12.9,39.3c-2.4,13.6-3.3,27.5-3.6,41.2
	c-0.2,6.3-0.2,12.6-0.3,19c0,7.5,0,15,0,22.5v235.5c0,7.5,0,15,0,22.5c0,6.3,0.1,12.7,0.3,19c0.4,13.8,1.2,27.7,3.6,41.3
	c2.3,13.7,6.7,26.9,12.9,39.3c12.7,24.9,32.9,45.1,57.8,57.8c12.4,6.2,25.6,10.6,39.3,12.9c13.6,2.5,27.5,3.3,41.3,3.6
	c6.3,0.2,12.6,0.2,19,0.3c7.5,0,15,0,22.5,0h235.5c7.5,0,15,0,22.5,0c6.3,0,12.7-0.1,19-0.3c13.8-0.4,27.7-1.2,41.3-3.6
	c13.7-2.3,26.9-6.7,39.3-12.9c24.9-12.7,45.1-32.9,57.8-57.8c6.2-12.4,10.6-25.6,13-39.3c2.4-13.6,3.3-27.5,3.6-41.3
	c0.2-6.3,0.2-12.7,0.3-19c0-7.5,0-15,0-22.5L913.6,326.7L913.6,326.7z"/>
<path class="st1" d="M729.3,226c-1.5,0.1-15,2.5-16.7,2.9l-187,37.7h-0.1c-4.3,0.8-8.3,2.6-11.6,5.2c-3.6,3-5.5,7.2-6.3,12.1
	c-0.3,2.1-0.4,4.2-0.4,6.3v234c0,5.5-0.4,10.8-4.1,15.3c-3.7,4.5-8.3,5.9-13.6,7l-12.2,2.5c-15.4,3.1-25.5,5.2-34.6,8.8
	c-8.7,3.4-15.2,7.7-20.4,13.1c-18.7,20.1-17.6,51.5,2.5,70.2c6.4,5.9,14.2,9.9,22.7,11.6c9.3,1.9,19.2,1.2,33.7-1.7
	c7.7-1.4,15.1-4.2,21.8-8.1c6.8-4,12.7-9.4,17.2-15.9c4.5-6.5,7.6-13.8,9.1-21.6c1.5-7.6,2.2-15.4,2.1-23.2v-203
	c0-10.9,3.1-13.7,11.8-15.9c0,0,155.4-31.3,162.7-32.8c10.1-1.9,14.9,1,14.9,11.5v138.6c0,5.5,0,11-3.8,15.6
	c-3.8,4.6-8.3,5.9-13.6,7l-12.2,2.5c-15.4,3.1-25.5,5.2-34.6,8.8c-8.7,3.4-15.2,7.7-20.4,13.1c-18.7,19.4-18.1,50.4,1.3,69.1
	c0.4,0.4,0.8,0.7,1.2,1.1c6.4,5.9,14.2,9.9,22.7,11.5c9.3,1.9,19.2,1.2,33.7-1.7c7.7-1.4,15.1-4.1,21.8-8c6.8-4,12.7-9.4,17.2-15.9
	c4.5-6.5,7.6-13.8,9.2-21.6c1.7-8,1.8-15.2,1.8-23.2V242.6C745.1,231.8,739.4,225.2,729.3,226z"/>
</svg>
